<svg xmlns="http://www.w3.org/2000/svg" viewBox="0 0 64 64">
  <defs>
    <linearGradient id="bg" x1="0%" y1="0%" x2="100%" y2="100%">
      <stop offset="0%" style="stop-color:#3498db"/>
      <stop offset="100%" style="stop-color:#2c3e50"/>
    </linearGradient>
  </defs>
  <!-- 배경 -->
  <rect width="64" height="64" rx="12" fill="url(#bg)"/>
  <!-- 빌딩 (BIM 느낌) -->
  <rect x="8" y="28" width="14" height="28" fill="#ecf0f1" rx="2"/>
  <rect x="25" y="18" width="14" height="38" fill="#fff" rx="2"/>
  <rect x="42" y="24" width="14" height="32" fill="#ecf0f1" rx="2"/>
  <!-- 창문들 -->
  <rect x="11" y="32" width="3" height="3" fill="#3498db"/>
  <rect x="16" y="32" width="3" height="3" fill="#3498db"/>
  <rect x="11" y="38" width="3" height="3" fill="#3498db"/>
  <rect x="16" y="38" width="3" height="3" fill="#3498db"/>
  <rect x="11" y="44" width="3" height="3" fill="#3498db"/>
  <rect x="16" y="44" width="3" height="3" fill="#3498db"/>
  <!-- 중앙 빌딩 창문 -->
  <rect x="28" y="22" width="3" height="3" fill="#f39c12"/>
  <rect x="33" y="22" width="3" height="3" fill="#f39c12"/>
  <rect x="28" y="28" width="3" height="3" fill="#3498db"/>
  <rect x="33" y="28" width="3" height="3" fill="#3498db"/>
  <rect x="28" y="34" width="3" height="3" fill="#3498db"/>
  <rect x="33" y="34" width="3" height="3" fill="#3498db"/>
  <rect x="28" y="40" width="3" height="3" fill="#3498db"/>
  <rect x="33" y="40" width="3" height="3" fill="#3498db"/>
  <rect x="28" y="46" width="3" height="3" fill="#3498db"/>
  <rect x="33" y="46" width="3" height="3" fill="#3498db"/>
  <!-- 오른쪽 빌딩 창문 -->
  <rect x="45" y="28" width="3" height="3" fill="#3498db"/>
  <rect x="50" y="28" width="3" height="3" fill="#3498db"/>
  <rect x="45" y="34" width="3" height="3" fill="#3498db"/>
  <rect x="50" y="34" width="3" height="3" fill="#3498db"/>
  <rect x="45" y="40" width="3" height="3" fill="#3498db"/>
  <rect x="50" y="40" width="3" height="3" fill="#3498db"/>
  <!-- 크레인 -->
  <rect x="5" y="8" width="2" height="20" fill="#e74c3c"/>
  <rect x="5" y="8" width="20" height="2" fill="#e74c3c"/>
  <line x1="25" y1="10" x2="20" y2="20" stroke="#f39c12" stroke-width="1.5"/>
  <!-- BIM 점 (데이터 포인트) -->
  <circle cx="55" cy="12" r="3" fill="#2ecc71"/>
  <circle cx="48" cy="8" r="2" fill="#2ecc71" opacity="0.7"/>
</svg>
